<svg xmlns="http://www.w3.org/2000/svg" width="18" height="16" viewBox="0 0 18 16">
    <path fill="#4D4D4E" fill-rule="evenodd" d="M18 1.894a6.87 6.87 0 0 1-2.12.636c.762-.5 1.348-1.291 1.623-2.234a7.012 7.012 0 0 1-2.346.979C14.485.49 13.525 0 12.462 0 10.424 0 8.77 1.809 8.77 4.039c0 .317.032.624.095.92C5.796 4.79 3.075 3.184 1.253.737a4.327 4.327 0 0 0-.5 2.033c0 1.4.652 2.637 1.643 3.362a3.457 3.457 0 0 1-1.673-.504v.05c0 1.957 1.273 3.59 2.963 3.96-.31.095-.636.142-.973.142a3.37 3.37 0 0 1-.695-.071c.47 1.604 1.833 2.772 3.45 2.803-1.264 1.084-2.857 1.73-4.587 1.73-.298 0-.593-.018-.881-.055C1.634 15.33 3.576 16 5.66 16c6.794 0 10.508-6.154 10.508-11.492 0-.175-.003-.351-.01-.523A7.898 7.898 0 0 0 18 1.895"/>
</svg>
